# xmcd
#
# Track frame offsets:
# 150
# 17437
# 32483
# 49552
# 61550
# 83517
# 96442
# 112121
# 129333
# 142514
# 161139
#
# Disc length: 2488 seconds
#
# Revision: 1
# Processed by: cddbd v1.5PL3 Copyright (c) Steve Scherf et al.
# Submitted via: inCDius 2.0b9
#
DISCID=7809b60b
DTITLE=Jelly Roll Johnson - Jelly Roll Johnson and a Few Close Friends
DYEAR=1900
DGENRE=
TTITLE0=The Old Harpoon
TTITLE1=I Used to Worry
TTITLE2=Can I Come Back Home
TTITLE3=Marvelene's Kitchen
TTITLE4=Beside Myself
TTITLE5=Night by Night
TTITLE6=Troublemaker
TTITLE7=Your Eyes Will Shine
TTITLE8=Love Every Time
TTITLE9=A Lover is Forever
TTITLE10=Mouth Harp Man
EXTD=
EXTT0=
EXTT1=
EXTT2=
EXTT3=
EXTT4=
EXTT5=
EXTT6=
EXTT7=
EXTT8=
EXTT9=
EXTT10=
PLAYORDER=
